<svg xmlns="http://www.w3.org/2000/svg" xmlns:xlink="http://www.w3.org/1999/xlink" width="30" height="46" viewBox="0 0 30 46">
  <defs>
    <path id="hypotes-icon-a" d="M26.5096887,17.5455673 C26.5233019,17.6084312 26.5325516,17.6723767 26.534729,17.7357771 C26.5352777,17.7498729 26.5401726,17.7634147 26.5401726,17.7769653 L26.5401726,29.642805 C26.5401726,30.0199798 26.3387613,30.3673494 26.0110597,30.5553951 L14.0417855,37.4355877 C14.0292697,37.4420907 14.0151165,37.4448003 14.0025919,37.4507614 C13.9470677,37.4811088 13.8871887,37.5054951 13.8251323,37.5244623 C13.8039068,37.5315072 13.7826726,37.539094 13.7608984,37.5445132 C13.6803339,37.5634804 13.5986806,37.5764864 13.5126726,37.5764864 C13.4261245,37.5764864 13.3433826,37.5629384 13.2639068,37.5445132 C13.2421326,37.539094 13.2214471,37.5315072 13.1996729,37.5244623 C13.1370677,37.5049532 13.0782774,37.4811088 13.0216645,37.4507614 C13.0091487,37.4453423 12.9955355,37.4426327 12.9835597,37.4355877 L1.01320026,30.5553951 C0.686043,30.3673494 0.484087355,30.0194381 0.484087355,29.642805 L0.484087355,17.7769653 C0.484087355,17.7623331 0.489530903,17.7487825 0.490075258,17.7341503 C0.492252677,17.6712951 0.500418,17.6095128 0.514571226,17.547194 C0.519470419,17.5249732 0.523280903,17.5022159 0.529813161,17.4794498 C0.552676065,17.403044 0.582071226,17.3277199 0.623442194,17.2550953 C0.625619613,17.2518505 0.627252677,17.2491334 0.628885742,17.2458886 C0.670801065,17.1743544 0.721970419,17.1109453 0.776950258,17.0529617 C0.793280903,17.0367027 0.810700258,17.0215341 0.827575258,17.0058203 C0.875478484,16.9630053 0.925014774,16.923989 0.978905903,16.8903895 C0.99088171,16.8828008 1.0006801,16.8719585 1.0126559,16.864915 L8.65267258,12.4737519 C7.51660839,11.2728652 6.18348252,9.38861792 6.18348252,7.15320668 C6.18348252,3.40855101 9.12517258,0.323953455 12.881221,0.131571702 C12.9928181,0.126154975 13.2350516,0.122901421 13.2350516,0.122901421 C13.3831161,0.123437818 13.5137613,0.127236562 13.641689,0.134825256 C17.369971,0.346165554 20.2937052,3.42914512 20.2937052,7.15320668 C20.2937052,9.26451683 19.1037455,11.0631429 18.0150358,12.2683647 L26.0116084,16.864915 C26.0241242,16.8719585 26.0339226,16.8828008 26.0453584,16.8909259 C26.0987052,16.9245254 26.1493258,16.9630053 26.196689,17.0063567 C26.2135597,17.0220705 26.2315277,17.0367027 26.2473097,17.0529617 C26.3028339,17.1109453 26.3550919,17.175436 26.3970116,17.248597 C26.3981003,17.2496785 26.399189,17.2502237 26.399189,17.2513053 C26.4416487,17.3255479 26.4715839,17.4019624 26.4949955,17.4805402 C26.500979,17.5016707 26.5047939,17.5233464 26.5096887,17.5455673 Z M13.5121326,23.4405494 L23.3665839,17.7775105 L17.2181003,14.2436587 L17.2181003,17.305499 C17.2181003,18.5914705 16.1674955,19.6379101 14.8762858,19.6379101 L11.6003584,19.6379101 C10.3086,19.6379101 9.25799516,18.5914705 9.25799516,17.305499 L9.25799516,14.5585148 L3.65767606,17.7769653 L13.5121326,23.4405494 Z M15.1021887,16.0466199 L11.3739068,16.0466199 L11.3739068,17.305499 C11.3739068,17.4301365 11.4756968,17.5314803 11.6003584,17.5314803 L14.8762858,17.5314803 C15.0009387,17.5314803 15.1021887,17.4301365 15.1021887,17.305499 L15.1021887,16.0466199 Z M12.9879145,2.23583835 C10.3592294,2.3702365 8.29939065,4.53085997 8.29884194,7.15428826 C8.29884194,8.78871537 9.48662419,10.2881991 10.2084387,11.0474291 C10.6128987,11.4338106 10.9063016,11.837005 11.0859387,12.2439806 C11.0935597,12.2553593 11.1033581,12.2651199 11.110439,12.2775802 C11.1904548,12.4152319 11.2323745,12.563717 11.245439,12.7127386 C11.3292697,13.0525239 11.3711806,13.448666 11.3722694,13.9401813 L15.1027374,13.9401813 C15.1049148,13.2394889 15.1843906,12.727916 15.362939,12.2992559 C15.53931,11.8722225 15.8441487,11.4516963 16.2676568,11.0468839 C16.9889226,10.287654 18.1761648,8.78871537 18.1761648,7.15374307 C18.1761648,4.54494698 16.1293906,2.38595028 13.5159387,2.23800152 C13.4239471,2.2320484 13.3335842,2.22987643 13.2426726,2.22987643 C13.24485,2.22987643 13.0695677,2.2320484 12.9879145,2.23583835 Z M2.59999461,19.6010658 L2.59999461,29.0342348 L12.4544468,34.6983596 L12.4544468,25.2646499 L2.59999461,19.6010658 Z M14.5703584,34.6983596 L24.4242697,29.0342348 L24.4242697,19.6010658 L14.5703584,25.2646499 L14.5703584,34.6983596 Z"/>
    <path id="hypotes-icon-c" d="M13.3114969,-1.07314125 C12.6827812,-1.07314125 12.1730156,-1.54282375 12.1730156,-2.121435 L12.1730156,-6.33778 C12.1730156,-6.91693375 12.6827812,-7.38607375 13.3114969,-7.38607375 C13.9402031,-7.38607375 14.4499687,-6.91693375 14.4499687,-6.33778 L14.4499687,-2.1208925 C14.4499687,-1.54229 13.9402031,-1.07314125 13.3114969,-1.07314125 Z"/>
    <path id="hypotes-icon-e" d="M4.69122486,0.697839286 L1.91301057,-1.8713875 C1.50586771,-2.24725804 1.50586771,-2.85687946 1.91301057,-3.23225982 C2.319082,-3.60813839 2.979082,-3.60813839 3.38568914,-3.23225982 L6.16444,-0.663041071 C6.57051143,-0.2871625 6.57051143,0.322458929 6.1639,0.697839286 C5.96086771,0.885529464 5.694082,0.979619643 5.427832,0.979619643 C5.16104629,0.979619643 4.89426057,0.885529464 4.69122486,0.697839286 Z"/>
    <path id="hypotes-icon-g" d="M-2,8.49792206 L-2,7.10441037 C-1.81467745,6.84490258 -1.52824471,6.67842187 -1.20662133,6.67842187 L2.86525333,6.67842187 C3.4241075,6.67842187 3.8772325,7.18107187 3.8772325,7.8010125 C3.8772325,8.42153437 3.4241075,8.92418437 2.86525333,8.92418437 L-1.20662133,8.92360312 C-1.52811769,8.92360312 -1.81462356,8.75725389 -2,8.49792206 Z"/>
    <path id="hypotes-icon-i" d="M28,6.80043407 L28,8.80044544 C27.8579736,8.87881818 27.6970608,8.92303125 27.5265829,8.92303125 L23.3378286,8.92303125 C22.7635429,8.92303125 22.2964,8.42037188 22.2964,7.80044063 C22.2964,7.1805 22.7635429,6.67785 23.3378286,6.67785 L27.5265829,6.67785 C27.6970608,6.67785 27.8579736,6.72206225 28,6.80043407 Z"/>
    <path id="hypotes-icon-k" d="M20.2333,0.979619643 C19.92143,0.979619643 19.61143,0.885529464 19.37455,0.697341071 C18.90018,0.321470536 18.90018,-0.288150893 19.37455,-0.66353125 L22.61643,-3.23225982 C23.09143,-3.60813839 23.8608,-3.60813839 24.33455,-3.23225982 C24.80893,-2.85638929 24.80893,-2.24676786 24.33455,-1.8713875 L21.09205,0.697341071 C20.85518,0.885529464 20.54393,0.979619643 20.2333,0.979619643 Z"/>
  </defs>
  <g fill="none" fill-rule="evenodd" transform="translate(2 8)">
    <mask id="hypotes-icon-b" fill="#fff">
      <use xlink:href="#hypotes-icon-a"/>
    </mask>
    <polygon fill="#000" points="-2.238 40.286 29.262 40.286 29.262 -2.587 -2.238 -2.587" mask="url(#hypotes-icon-b)"/>
    <mask id="hypotes-icon-d" fill="#fff">
      <use xlink:href="#hypotes-icon-c"/>
    </mask>
    <polygon fill="#000" points="9.243 1.623 17.38 1.623 17.38 -10.082 9.243 -10.082" mask="url(#hypotes-icon-d)"/>
    <mask id="hypotes-icon-f" fill="#fff">
      <use xlink:href="#hypotes-icon-e"/>
    </mask>
    <polygon fill="#000" points="-1.071 3.456 9.148 3.456 9.148 -5.99 -1.071 -5.99" mask="url(#hypotes-icon-f)"/>
    <mask id="hypotes-icon-h" fill="#fff">
      <use xlink:href="#hypotes-icon-g"/>
    </mask>
    <polygon fill="#000" points="-4.823 11.813 6.481 11.813 6.481 3.79 -4.823 3.79" mask="url(#hypotes-icon-h)"/>
    <mask id="hypotes-icon-j" fill="#fff">
      <use xlink:href="#hypotes-icon-i"/>
    </mask>
    <polygon fill="#000" points="19.618 11.812 31.246 11.812 31.246 3.789 19.618 3.789" mask="url(#hypotes-icon-j)"/>
    <mask id="hypotes-icon-l" fill="#fff">
      <use xlink:href="#hypotes-icon-k"/>
    </mask>
    <polygon fill="#000" points="15.894 3.456 27.815 3.456 27.815 -5.99 15.894 -5.99" mask="url(#hypotes-icon-l)"/>
  </g>
</svg>
