<svg xmlns="http://www.w3.org/2000/svg" width="267" height="144" viewBox="0 0 267 144">
  <g fill="none" fill-rule="evenodd" transform="rotate(-18 257.049 34.24)">
    <rect width="256" height="64" fill="#FFF" stroke="#000" stroke-width="2"/>
    <path fill="#000" fill-rule="nonzero" d="M115.591052,20.0000194 C115.264614,20.0000194 115,20.2686484 115,20.6000194 C115,20.9313903 115.264614,21.2000193 115.591052,21.2000193 L118.657133,21.2000193 L121.769375,36.1437805 C121.737644,36.4856304 122.050331,36.8172804 122.388147,36.8000304 L137.16444,36.8000304 C137.476701,36.8045304 137.763914,36.5170704 137.763914,36.2000305 C137.763914,35.8830205 137.476701,35.5955605 137.16444,35.6000305 L122.868376,35.6000305 L122.369676,33.2000306 L138.346543,33.2000306 C138.611175,33.1970306 138.861222,32.9934206 138.919125,32.7312807 L140.987806,23.7312722 C141.064669,23.3830562 140.766747,23.0025722 140.415225,23.0000222 L120.245584,23.0000222 L119.719194,20.4687694 C119.660617,20.2035754 119.405076,19.9977004 119.137362,20.0000194 L115.591052,20.0000194 Z M120.494949,24.2000222 L139.67641,24.2000222 L137.875534,32.0000307 L122.120341,32.0000307 L120.494949,24.2000222 Z M125.638932,38.6000003 C124.177024,38.6000003 122.979199,39.8159302 122.979199,41.3000002 C122.979199,42.7840701 124.177024,44 125.638932,44 C127.100868,44 128.298664,42.7840701 128.298664,41.3000002 C128.298664,39.8159302 127.100868,38.6000003 125.638932,38.6000003 Z M133.913656,38.6000003 C132.451749,38.6000003 131.253923,39.8159302 131.253923,41.3000002 C131.253923,42.7840701 132.451749,44 133.913656,44 C135.375592,44 136.573388,42.7840701 136.573388,41.3000002 C136.573388,39.8159302 135.375592,38.6000003 133.913656,38.6000003 Z M125.638932,39.8000002 C126.462001,39.8000002 127.116561,40.4644702 127.116561,41.3000002 C127.116561,42.1355301 126.462001,42.8000001 125.638932,42.8000001 C124.815892,42.8000001 124.161302,42.1355301 124.161302,41.3000002 C124.161302,40.4644702 124.815892,39.8000002 125.638932,39.8000002 Z M133.913656,39.8000002 C134.736724,39.8000002 135.391285,40.4644702 135.391285,41.3000002 C135.391285,42.1355301 134.736724,42.8000001 133.913656,42.8000001 C133.090617,42.8000001 132.436027,42.1355301 132.436027,41.3000002 C132.436027,40.4644702 133.090617,39.8000002 133.913656,39.8000002 Z"/>
  </g>
</svg>
