<svg xmlns="http://www.w3.org/2000/svg" width="168" height="168" viewBox="0 0 168 168">
  <g fill="none" fill-rule="evenodd" transform="rotate(21 20.045 127.955)">
    <rect width="128" height="128" fill="#FFF" stroke="#000" stroke-width="2"/>
    <g fill="#000" fill-rule="nonzero" transform="translate(34 36)">
      <path d="M47.0671852,57 L13.9388929,57 C13.2373885,57 12.6680516,56.4186329 12.6680516,55.7080731 L12.6680516,26.7017294 L5.53354824,26.7017294 C4.96929468,26.7017294 4.47112487,26.3244868 4.31354054,25.771542 L0.0511386559,10.901463 C-0.121695768,10.3020089 0.155347647,9.66379695 0.70435111,9.38215688 L18.9485495,0.134543849 C19.3425104,-0.0644129001 19.8076383,-0.0411582152 20.1838073,0.193972488 C20.5574347,0.429103191 20.7861861,0.842519811 20.7861861,1.29211039 C20.7861861,6.14717182 25.7246756,9.05142358 30.5004974,9.05142358 C35.2763192,9.05142358 40.2148087,6.14717182 40.2148087,1.29211039 C40.2148087,0.845103665 40.4435601,0.429103191 40.8146458,0.193972488 C41.1908148,-0.0411582152 41.6584845,-0.0644129001 42.0499036,0.134543849 L60.294102,9.38215688 C60.8456472,9.6612131 61.1201489,10.299425 60.9498562,10.901463 L56.6849126,25.771542 C56.5273283,26.3244868 56.0291584,26.7017294 55.4674466,26.7017294 L48.3329432,26.7017294 L48.3329432,55.7106569 C48.3380266,56.4212167 47.7686897,57 47.0671852,57 Z M15.2097343,54.4161461 L45.7963439,54.4161461 L45.7963439,25.4098025 C45.7963439,24.6966588 46.3656808,24.1178755 47.0671852,24.1178755 L54.5193989,24.1178755 L58.2175473,11.2141093 L42.5556985,3.27392631 C41.429733,8.54240437 35.8837814,11.6301098 30.5030391,11.6301098 C25.1222968,11.6301098 19.5763452,8.54240437 18.4529214,3.27134246 L2.79107261,11.2115254 L6.48922094,24.1152917 L13.9414346,24.1152917 C14.642939,24.1152917 15.212276,24.694075 15.212276,25.4072186 L15.2097343,54.4161461 Z"/>
      <path d="M39.7777778,3 L20.2222222,3 C19.5475556,3 19,2.328 19,1.5 C19,0.672 19.5475556,0 20.2222222,0 L39.7777778,0 C40.45,0 41,0.672 41,1.5 C41,2.328 40.45,3 39.7777778,3 Z"/>
    </g>
  </g>
</svg>
