<svg xmlns="http://www.w3.org/2000/svg" width="54" height="24" viewBox="0 0 54 24">
  <g fill="#1D1D1B" fill-rule="evenodd">
    <path d="M5.59477591 17.7348103C5.59477591 18.2236034 5.98766683 18.6192931 6.47140225 18.6192931L9.09159732 18.6192931C12.3218801 18.6192931 13.953853 15.4933448 13.953853 12.0978621 13.953853 8.66839655 12.3218801 5.47494828 9.09159732 5.47494828L6.47140225 5.47494828C5.98766683 5.47494828 5.59477591 5.87110345 5.59477591 6.35943103L5.59477591 17.7348103zM-.000230569782 1.35046552C-.000230569782.861672414.392660349.465517241.876856905.465517241L9.09159732.465517241C15.7186342.465517241 19.5151963 5.50846552 19.5151963 12.0978621 19.5151963 18.6532759 15.7186342 23.6287241 9.09159732 23.6287241L.876856905 23.6287241C.392660349 23.6287241-.000230569782 23.2330345-.000230569782 22.7442414L-.000230569782 1.35046552zM27.0751185 14.7748655L27.0751185 17.959469C27.0751185 18.379831 27.4122116 18.7205897 27.8286206 18.7205897L30.638344 18.7205897C32.3699231 18.7205897 33.2027412 17.5102448 33.2027412 16.3338828 33.2027412 15.2576069 32.4699904 14.0137448 30.605142 14.0137448L27.8286206 14.0137448C27.4122116 14.0137448 27.0751185 14.3545034 27.0751185 14.7748655zM30.0720646 9.40791724C31.2046234 9.40791724 32.0037783 8.66821034 32.0037783 7.49184828 32.0037783 6.28150345 31.470701 5.37374483 30.1389299 5.37374483L27.8286206 5.37374483C27.4122116 5.37374483 27.0751185 5.71450345 27.0751185 6.1344L27.0751185 8.64726207C27.0751185 9.06762414 27.4122116 9.40791724 27.8286206 9.40791724L30.0720646 9.40791724zM35.6915115 10.817969C35.3973045 10.9925379 35.4314288 11.4156931 35.7509985 11.5357966 38.1009658 12.4202793 39.0970273 14.827469 39.0970273 16.7705379 39.0970273 20.1325034 37.1325727 23.6290034 31.5375662 23.6290034L22.2340753 23.6290034C21.8176662 23.6290034 21.480112 23.2882448 21.480112 22.8678828L21.480112 1.22645172C21.480112.806089655 21.8176662.465331034 22.2340753.465331034L30.8712195.465331034C35.1344549.465331034 37.8985255 2.95305517 37.8985255 6.6851069 37.8985255 7.80095172 37.4157124 9.79336552 35.6915115 10.817969zM45.4770317 23.1491483C45.3502183 23.5020103 45.0956692 23.6300276 44.8102238 23.6300276L41.3802677 23.6300276C40.9675477 23.6300276 40.6821024 23.2133897 40.872553 22.7325103L49.3192466.965855172C49.44606.612993103 49.6369718.484510345 49.9228783.484510345L53.3523734.484510345C53.7655544.484510345 54.0509998.901613793 53.8605492 1.3824931L45.4770317 23.1491483z"/>
  </g>
</svg>
