<?xml version="1.0" encoding="UTF-8"?><!DOCTYPE svg PUBLIC "-//W3C//DTD SVG 1.1//EN" "http://www.w3.org/Graphics/SVG/1.1/DTD/svg11.dtd"><svg xmlns="http://www.w3.org/2000/svg" xmlns:xlink="http://www.w3.org/1999/xlink"><defs><path id="hypotes-icon-a" d="M26.51 17.546c.013.062.023.126.025.19 0 .014.005.027.005.041v11.866c0 .377-.201.724-.529.912l-11.97 6.88c-.012.007-.026.01-.038.016a.948.948 0 0 1-.178.073 1.074 1.074 0 0 1-.312.052c-.087 0-.17-.013-.25-.031l-.063-.02a1.008 1.008 0 0 1-.178-.074c-.013-.006-.026-.008-.038-.015l-11.97-6.88a1.053 1.053 0 0 1-.53-.913V17.777c0-.015.006-.028.006-.043a.994.994 0 0 1 .025-.187c.004-.022.008-.045.015-.068a1.066 1.066 0 0 1 .099-.233c.042-.072.093-.135.148-.193l.05-.047c.048-.043.098-.082.152-.116.012-.007.022-.018.034-.025l7.64-4.391c-1.136-1.201-2.47-3.085-2.47-5.32 0-3.745 2.942-6.83 6.698-7.022.112-.006.354-.01.354-.01.148.001.279.005.407.013 3.728.211 6.652 3.294 6.652 7.018 0 2.112-1.19 3.91-2.279 5.115l7.997 4.597c.012.007.022.018.033.026.054.034.104.072.152.115.017.016.035.03.05.047.056.058.108.122.15.196l.002.002c.043.075.073.151.096.23.006.02.01.042.015.065zM13.512 23.44l9.855-5.663-6.149-3.534v3.061a2.34 2.34 0 0 1-2.342 2.333H11.6a2.34 2.34 0 0 1-2.342-2.333V14.56l-5.6 3.218 9.854 5.664zm1.59-7.394h-3.728v1.258c0 .125.102.226.226.226h3.276a.226.226 0 0 0 .226-.226v-1.258zM12.988 2.236a4.931 4.931 0 0 0-4.69 4.918c0 1.635 1.189 3.134 1.91 3.893.405.387.698.79.878 1.197.008.011.017.021.024.034.08.137.122.286.135.435.084.34.126.736.127 1.227h3.73c.003-.7.082-1.212.26-1.64.177-.428.482-.848.906-1.253.72-.76 1.908-2.258 1.908-3.893a4.934 4.934 0 0 0-4.933-4.924c.002 0-.173.002-.255.006zM2.6 19.6v9.433l9.854 5.664v-9.433L2.6 19.6zm11.97 15.097l9.854-5.664v-9.433l-9.854 5.664v9.433z"/><path id="hypotes-icon-c" d="M13.311-1.073c-.628 0-1.138-.47-1.138-1.048v-4.217c0-.579.51-1.048 1.138-1.048.63 0 1.139.47 1.139 1.048v4.217c0 .579-.51 1.048-1.139 1.048z"/><path id="hypotes-icon-e" d="M4.691.698l-2.778-2.57a.91.91 0 0 1 0-1.36 1.103 1.103 0 0 1 1.473 0L6.164-.663a.912.912 0 0 1 0 1.36c-.203.189-.47.283-.736.283-.267 0-.534-.094-.737-.282z"/><path id="hypotes-icon-g" d="M-2 8.498V7.104a.977.977 0 0 1 .793-.426h4.072c.56 0 1.012.503 1.012 1.123s-.453 1.123-1.012 1.123h-4.072A.978.978 0 0 1-2 8.498z"/><path id="hypotes-icon-i" d="M28 6.8v2a.976.976 0 0 1-.473.123h-4.19c-.573 0-1.04-.503-1.04-1.123s.467-1.122 1.04-1.122h4.19c.17 0 .331.044.473.122z"/><path id="hypotes-icon-k" d="M20.233.98c-.312 0-.622-.094-.858-.283-.475-.376-.475-.985 0-1.36l3.241-2.57c.475-.375 1.245-.375 1.719 0 .474.377.474.986 0 1.362L21.092.697a1.387 1.387 0 0 1-.859.283z"/></defs><symbol id="arrow-head" viewBox="0 0 6 12"><path fill-rule="evenodd" d="M3.724 5.125L.276 1.669a.802.802 0 0 1-.276-.6v-.72c0-.288.322-.48.552-.24l5.172 5.4c.184.192.184.408-.023.648L.713 11.365c-.276.288-.713.048-.713-.336v-.648c0-.24.16-.36.345-.552l3.379-3.336V5.125z"/></symbol><symbol id="hypotes-icon" viewBox="0 0 30 46"><g fill="none" fill-rule="evenodd" transform="translate(2 8)"><mask id="hypotes-icon-b" fill="#fff"><use xlink:href="#hypotes-icon-a"/></mask><path fill="#000" mask="url(#hypotes-icon-b)" d="M-2.238 40.286h31.5V-2.587h-31.5z"/><mask id="hypotes-icon-d" fill="#fff"><use xlink:href="#hypotes-icon-c"/></mask><path fill="#000" mask="url(#hypotes-icon-d)" d="M9.243 1.623h8.137v-11.705H9.243z"/><mask id="hypotes-icon-f" fill="#fff"><use xlink:href="#hypotes-icon-e"/></mask><path fill="#000" mask="url(#hypotes-icon-f)" d="M-1.071 3.456H9.148V-5.99H-1.071z"/><mask id="hypotes-icon-h" fill="#fff"><use xlink:href="#hypotes-icon-g"/></mask><path fill="#000" mask="url(#hypotes-icon-h)" d="M-4.823 11.813H6.481V3.79H-4.823z"/><mask id="hypotes-icon-j" fill="#fff"><use xlink:href="#hypotes-icon-i"/></mask><path fill="#000" mask="url(#hypotes-icon-j)" d="M19.618 11.812h11.628V3.789H19.618z"/><mask id="hypotes-icon-l" fill="#fff"><use xlink:href="#hypotes-icon-k"/></mask><path fill="#000" mask="url(#hypotes-icon-l)" d="M15.894 3.456h11.921V-5.99H15.894z"/></g></symbol><symbol id="prototype-buy-icon" viewBox="0 0 267 144"><g fill="none" fill-rule="evenodd"><path fill="#FFF" stroke="#000" stroke-width="2" d="M2 81.108L245.47 2l19.778 60.868-243.47 79.108z"/><path fill="#000" fill-rule="nonzero" d="M118.114 64.41c-.31.1-.479.438-.377.753a.596.596 0 0 0 .748.388l2.916-.947 7.578 13.25c.075.335.475.554.791.433l14.053-4.566c.298-.092.483-.454.385-.756-.098-.301-.46-.486-.756-.385l-13.596 4.418-1.216-2.129 15.195-4.937a.613.613 0 0 0 .4-.623l-.814-9.199c-.035-.354-.436-.624-.77-.518l-19.183 6.233-1.283-2.245a.612.612 0 0 0-.698-.266l-3.373 1.096zm5.962 2.479l18.243-5.927.697 7.974-14.984 4.869-3.956-6.916zm9.342 12.106c-1.39.451-2.154 1.978-1.695 3.39.458 1.41 1.973 2.197 3.364 1.745 1.39-.452 2.153-1.978 1.695-3.39-.459-1.41-1.974-2.197-3.364-1.745zm7.87-2.557c-1.39.451-2.154 1.978-1.696 3.39.459 1.41 1.974 2.197 3.364 1.745 1.39-.452 2.154-1.978 1.696-3.39-.46-1.411-1.974-2.197-3.364-1.745zm-7.5 3.698a1.48 1.48 0 0 1 1.87.97 1.48 1.48 0 0 1-.942 1.883 1.48 1.48 0 0 1-1.87-.97 1.48 1.48 0 0 1 .943-1.883zm7.87-2.557a1.48 1.48 0 0 1 1.87.97 1.48 1.48 0 0 1-.942 1.883 1.48 1.48 0 0 1-1.87-.97 1.48 1.48 0 0 1 .942-1.883z"/></g></symbol><symbol id="prototype-scrub-icon" viewBox="0 0 183 46"><g fill="none" fill-rule="evenodd" stroke="#000" transform="rotate(7 -7.6 33.35)"><path fill="#FFF" stroke-width="1.4" d="M0 0h179v22H0z"/><path stroke-linecap="round" stroke-linejoin="round" stroke-width="1.05" d="M11.629 11.332h157.765"/><ellipse cx="27.969" cy="11" stroke-linecap="round" stroke-linejoin="round" stroke-width="1.05" rx="6.293" ry="6.188"/></g></symbol><symbol id="prototype-tshirt-icon" viewBox="0 0 168 168"><g fill="none" fill-rule="evenodd"><path fill="#FFF" stroke="#000" stroke-width="2" d="M47.186 1.315l119.499 45.871-45.871 119.499L1.315 120.814z"/><g fill="#000" fill-rule="nonzero"><path d="M89.54 117.19l-30.927-11.872a1.284 1.284 0 0 1-.724-1.662l10.395-27.08-6.66-2.556a1.272 1.272 0 0 1-.806-1.306l1.35-15.41a1.304 1.304 0 0 1 1.154-1.184l20.347-2.095c.439-.045.865.144 1.132.498.264.353.33.821.168 1.241-1.74 4.533 1.83 9.014 6.289 10.725 4.458 1.712 10.11.77 11.85-3.762.16-.418.522-.724.953-.81.436-.085.88.06 1.175.387l13.718 15.171c.415.458.442 1.152.068 1.654l-9.31 12.353c-.346.46-.946.634-1.47.433l-6.662-2.557-10.395 27.082a1.274 1.274 0 0 1-1.644.75zm-28.815-13.829l28.555 10.961 10.395-27.08a1.282 1.282 0 0 1 1.65-.75l6.957 2.67 8.077-10.72-11.776-13.026c-2.94 4.515-9.224 5.41-14.247 3.482-5.023-1.929-9.094-6.799-8.254-12.122l-17.467 1.8-1.172 13.372 6.957 2.67c.655.252.98.996.724 1.662L60.725 103.36z"/><path d="M102.087 64.164l-18.256-7.008c-.63-.241-.9-1.065-.604-1.838.297-.773 1.05-1.204 1.679-.962l18.257 7.008c.627.24.9 1.065.603 1.838-.297.773-1.05 1.203-1.679.962z"/></g></g></symbol></svg>